# xmcd
#
# Track frame offsets:
#	150
#	9592
#	19116
#	30691
#	40750
#	50803
#	61352
#	70345
#	80310
#	90336
#	100403
#	114794
#	129957
#	142010
#	153300
#	162853
#	174730
#	183727
#	193912
#	204553
#	214182
#	224021
#	234842
#	245196
#	255611
#	268078
#	279528
#
# Disc length: 3860 seconds
#
# Revision: 0
# Processed by: cddbd v1.5.2PL0 Copyright (c) Steve Scherf et al.
# Submitted via: EasyCDDAExtractor 15.2.5.1
#
DISCID=8e0f121b
DTITLE=The Stanley Brothers - The Early Starday-King Years 1958 - 1961
DYEAR=2011
DGENRE=Bluegrass
TTITLE0=Let Me Love You One More Time
TTITLE1=Little Benny
TTITLE2=Old Love Letters
TTITLE3=Daybreak In Dixie (undubbed version)
TTITLE4=Daybreak In Dixie (overdubbed version)
TTITLE5=Wildwood Flower
TTITLE6=Let Me Rest
TTITLE7=Are You Tired Of Me My Darling
TTITLE8=Finger Popping Time (undubbed version)
TTITLE9=Finger Popping Time (overdubbed version)
TTITLE10=Rank Stranger (alt. previously unreleased)
TTITLE11=Come All Ye Tenderhearted
TTITLE12=Lover's Quarrel
TTITLE13=The Story of the Lawson Family
TTITLE14=Jenny Lynnn
TTITLE15=Little Willie
TTITLE16=Big Tilda
TTITLE17=Wild Bill Jones
TTITLE18=Your Still To Blame
TTITLE19=I'll Take The Blame
TTITLE20=I'll Just Go Away
TTITLE21=Steel Guitar Rag (previously unissued)
TTITLE22=I'd Worship You
TTITLE23=Just Dreamin'
TTITLE24=The Drunken Driver
TTITLE25=Little Joe
TTITLE26=Handsome Molly
EXTD=
EXTT0=
EXTT1=
EXTT2=
EXTT3=
EXTT4=
EXTT5=
EXTT6=
EXTT7=
EXTT8=
EXTT9=
EXTT10=
EXTT11=
EXTT12=
EXTT13=
EXTT14=
EXTT15=
EXTT16=
EXTT17=
EXTT18=
EXTT19=
EXTT20=
EXTT21=
EXTT22=
EXTT23=
EXTT24=
EXTT25=
EXTT26=
PLAYORDER=
